<?xml version="1.0" standalone="no"?>
<!DOCTYPE svg PUBLIC "-//W3C//DTD SVG 20010904//EN"
 "http://www.w3.org/TR/2001/REC-SVG-20010904/DTD/svg10.dtd">
<svg version="1.0" xmlns="http://www.w3.org/2000/svg"
 width="512.000000pt" height="512.000000pt" viewBox="0 0 512.000000 512.000000"
 preserveAspectRatio="xMidYMid meet">

<g transform="translate(0.000000,512.000000) scale(0.100000,-0.100000)"
fill="#000000" stroke="none">
<path d="M2083 5109 c-23 -24 -13 -42 62 -116 143 -141 204 -263 205 -409 0
-94 -18 -162 -68 -257 -32 -62 -38 -68 -61 -64 -14 2 -69 14 -121 25 -179 38
-278 47 -535 46 -183 0 -284 -5 -375 -17 -328 -46 -607 -139 -729 -244 -42
-35 -47 -48 -32 -72 6 -10 33 -13 102 -12 300 5 491 -110 575 -346 13 -38 24
-77 24 -88 0 -15 -32 -42 -122 -102 -424 -280 -842 -782 -967 -1159 -50 -151
-51 -224 -3 -224 9 0 48 33 87 73 138 142 265 206 411 207 94 0 162 -18 257
-68 62 -32 68 -38 64 -61 -2 -14 -14 -69 -25 -121 -39 -182 -47 -277 -46 -535
0 -179 5 -285 17 -375 46 -327 139 -607 244 -729 19 -23 40 -41 46 -41 32 1
36 18 41 155 4 148 17 208 63 299 31 61 100 136 164 176 51 33 170 79 204 80
15 0 42 -32 102 -122 276 -419 785 -844 1158 -967 152 -50 225 -51 225 -3 0 9
-34 49 -75 89 -143 141 -204 263 -205 409 0 94 18 162 68 257 32 62 38 68 61
64 14 -2 69 -14 121 -25 180 -38 278 -47 535 -46 181 0 285 5 375 17 327 46
607 139 729 244 42 35 47 48 32 72 -6 10 -33 13 -102 12 -300 -5 -491 110
-575 346 -13 38 -24 77 -24 88 0 15 32 42 123 102 418 276 843 785 966 1158
50 152 51 225 3 225 -9 0 -49 -34 -89 -75 -141 -143 -263 -204 -409 -205 -45
0 -104 7 -135 16 -71 21 -189 83 -189 100 0 7 9 50 20 96 42 176 54 301 54
568 0 187 -5 288 -17 380 -46 327 -139 607 -244 729 -35 42 -48 47 -72 32 -10
-6 -13 -33 -12 -102 5 -300 -110 -491 -346 -575 -38 -13 -77 -24 -88 -24 -15
0 -42 32 -102 123 -276 418 -784 842 -1158 966 -109 36 -195 48 -212 30z m312
-158 c292 -138 617 -405 870 -713 44 -54 186 -260 182 -264 -1 -1 -65 -8 -142
-14 -260 -21 -393 -92 -499 -264 -86 -138 -125 -294 -135 -524 l-6 -153 -119
142 -119 143 7 432 c8 484 13 448 -68 479 l-44 17 33 62 c50 92 76 187 76 282
0 153 -36 242 -162 408 l-22 28 24 -7 c13 -4 69 -28 124 -54z m1755 -621 c38
-113 77 -310 95 -478 31 -291 10 -683 -47 -880 l-13 -44 -90 78 c-176 151
-273 196 -425 196 -92 1 -174 -17 -266 -58 -102 -45 -254 -153 -357 -255 -54
-53 -96 -91 -93 -84 2 7 10 78 16 157 19 243 -18 184 333 523 218 211 307 303
307 318 0 12 -9 41 -20 65 -14 31 -16 44 -7 47 209 65 303 127 389 259 53 82
77 167 99 344 1 14 52 -105 79 -188z m-2165 -99 c66 -11 140 -26 163 -33 l44
-13 -78 -90 c-151 -176 -195 -272 -196 -425 -1 -93 17 -173 58 -266 45 -102
153 -254 255 -357 53 -54 91 -96 84 -93 -7 2 -78 10 -157 16 -244 20 -184 -18
-523 333 -210 216 -304 307 -319 307 -11 0 -40 -9 -64 -20 -31 -14 -44 -16
-47 -7 -43 140 -81 218 -140 288 -90 108 -220 168 -419 194 l-48 7 27 14 c111
58 338 119 550 148 164 23 180 24 445 21 192 -2 271 -8 365 -24z m334 -87 l39
-16 -4 -51 c-2 -29 -6 -222 -8 -429 l-5 -378 91 -102 c123 -139 255 -318 234
-318 -8 0 -216 119 -261 150 -158 109 -346 367 -390 537 -33 127 -10 280 57
375 31 43 200 248 205 248 2 0 20 -7 42 -16z m1186 -285 c9 -17 15 -36 13 -42
-2 -7 -139 -144 -305 -306 -246 -239 -303 -299 -307 -325 -3 -17 -8 -80 -11
-141 -6 -117 -30 -301 -44 -338 -11 -27 -9 -30 -51 118 -52 189 -60 284 -39
460 24 195 81 342 170 440 91 99 165 130 354 150 202 20 202 20 220 -16z
m-1897 -646 c241 -248 299 -303 325 -307 18 -3 82 -8 142 -11 117 -6 301 -30
338 -44 27 -11 30 -9 -118 -51 -188 -52 -284 -60 -455 -40 -308 38 -506 162
-567 358 -12 40 -42 281 -43 349 0 24 43 54 70 50 9 -1 147 -138 308 -304z
m-448 92 c21 -260 92 -393 264 -499 138 -85 294 -125 523 -135 l153 -6 -142
-119 -141 -119 -433 7 c-484 8 -448 13 -479 -68 l-17 -44 -62 33 c-92 50 -187
76 -282 76 -153 0 -242 -36 -408 -162 l-28 -22 7 24 c14 48 103 226 152 306
145 233 378 494 615 688 54 44 260 186 264 182 1 -1 8 -65 14 -142z m2637
-203 c32 -10 76 -30 98 -44 31 -19 205 -160 257 -207 5 -4 1 -25 -8 -48 -15
-39 -18 -41 -53 -37 -20 2 -213 6 -428 8 l-393 5 -102 -91 c-139 -123 -318
-255 -318 -234 0 8 119 216 150 262 105 153 366 344 533 389 75 20 194 19 264
-3z m1193 -293 c-90 -227 -279 -496 -520 -739 -74 -75 -171 -165 -215 -201
-75 -60 -277 -200 -282 -195 -1 1 -7 62 -13 136 -12 148 -27 215 -70 300 -78
155 -246 264 -486 316 -44 9 -148 19 -233 23 l-155 6 75 59 c41 33 104 87 142
120 l67 59 434 -7 c486 -8 450 -13 481 68 l17 44 62 -33 c95 -52 187 -76 286
-76 136 1 237 38 361 131 35 26 65 47 67 45 1 -1 -7 -27 -18 -56z m-2376 -50
c47 -10 63 -19 90 -50 64 -76 72 -99 58 -181 -11 -65 -16 -77 -51 -108 -21
-20 -55 -44 -74 -55 -33 -18 -43 -18 -109 -7 -65 11 -77 16 -108 51 -20 21
-44 55 -55 74 -18 33 -18 42 -7 109 14 80 24 95 97 144 54 37 73 40 159 23z
m-402 -201 c-32 -58 -74 -126 -92 -153 -109 -158 -367 -346 -537 -390 -119
-31 -265 -12 -358 47 -31 19 -208 162 -258 208 -4 4 -1 25 8 47 15 39 18 41
53 37 20 -2 214 -6 430 -8 l393 -5 67 61 c132 120 338 276 349 264 2 -1 -23
-50 -55 -108z m107 -258 c53 -195 62 -289 41 -460 -41 -333 -178 -529 -405
-579 -27 -6 -111 -15 -185 -21 -125 -10 -135 -10 -148 7 -34 48 -31 52 145
224 92 90 231 225 307 300 l140 137 7 128 c13 206 43 405 58 387 4 -4 22 -60
40 -123z m961 60 c333 -41 529 -178 579 -405 6 -27 15 -111 21 -185 10 -125
10 -135 -7 -148 -48 -34 -52 -31 -224 145 -90 92 -225 231 -300 307 l-137 140
-133 8 c-214 13 -421 46 -379 61 41 15 245 70 287 77 70 11 197 11 293 0z
m-1126 -140 c-7 -58 -13 -134 -14 -170 -1 -36 -5 -77 -9 -91 -4 -18 -112 -129
-313 -324 -217 -210 -308 -304 -308 -319 0 -11 9 -40 20 -64 14 -31 16 -44 7
-47 -161 -50 -237 -90 -313 -165 -86 -85 -133 -178 -155 -307 -6 -37 -14 -84
-18 -103 l-7 -34 -32 77 c-68 162 -121 403 -143 647 -23 262 2 655 53 828 l13
44 90 -78 c176 -151 273 -196 425 -196 104 -1 189 21 293 72 119 60 223 136
327 240 52 52 95 95 96 95 0 0 -5 -47 -12 -105z m408 -8 c58 -33 126 -74 153
-92 158 -109 346 -367 390 -537 31 -119 12 -265 -47 -358 -19 -31 -160 -205
-207 -257 -4 -5 -25 -1 -48 8 l-41 16 4 52 c2 28 6 221 8 428 l5 378 -91 102
c-123 139 -255 318 -234 318 2 0 51 -26 108 -58z m400 -62 c244 -20 184 18
523 -332 210 -217 304 -308 319 -308 11 0 40 9 64 20 31 14 44 16 47 7 50
-161 90 -237 165 -313 85 -86 178 -133 307 -155 37 -6 84 -14 103 -18 l34 -7
-77 -32 c-162 -68 -403 -121 -647 -143 -260 -23 -656 2 -828 53 l-44 13 78 90
c151 176 195 272 196 425 1 93 -17 173 -58 266 -45 102 -153 254 -255 357 -53
54 -91 96 -84 93 7 -2 78 -10 157 -16z m-377 -204 l108 -129 -7 -432 c-8 -485
-13 -449 68 -480 l44 -17 -33 -62 c-50 -92 -76 -187 -76 -282 0 -153 36 -242
162 -408 l22 -28 -24 7 c-44 13 -223 101 -294 145 -235 144 -505 384 -700 622
-46 56 -186 260 -181 265 1 1 62 7 136 13 148 12 215 27 299 70 215 108 341
387 341 755 0 101 2 117 14 105 7 -8 62 -73 121 -144z"/>
</g>
</svg>
